<svg width="86px" height="106px"  xmlns="http://www.w3.org/2000/svg">

    <g id="Page-1" stroke="none" stroke-width="1" fill="none" fill-rule="odd" fill-opacity="0.0345618207">
        <g id="Homepage" transform="translate(-43.000000, -2154.000000)" fill="#000000">
            <g id="Group-6" transform="translate(-18.000000, 1946.000000)">
                <g id="Group-3" transform="translate(-90.000000, -30.000000)">
                    <path d="M182.113656,252.450985 C180.980569,250.515005 179.417884,248.902405 177.585622,247.667798 L180.173994,242.506618 C180.443572,241.969084 180.336161,241.376938 179.904417,240.948631 C179.472673,240.518185 178.880886,240.411098 178.341732,240.679864 L173.274543,243.205841 L170.740949,238.153888 C170.526128,237.723442 170.039617,237.402201 169.555241,237.402201 C169.070843,237.402201 168.584332,237.670968 168.369533,238.153888 L165.835938,243.205841 L160.76875,240.679864 C160.229595,240.411098 159.635663,240.518185 159.206065,240.948631 C158.774321,241.379077 158.721667,241.969084 158.936487,242.506618 L161.52486,247.667798 C159.692597,248.849941 158.127756,250.517155 156.996826,252.450985 C155.64894,254.708195 154.947608,257.234172 154.947608,259.869483 L154.947608,269.169347 C154.947608,271.749937 155.64894,274.330527 156.996826,276.587845 C158.829088,279.705969 161.794437,282.018007 165.246427,283.093074 C166.649091,283.52352 168.104376,283.737684 169.559662,283.737684 C171.014947,283.737684 172.470233,283.523509 173.872897,283.093074 C177.322622,282.018007 180.28775,279.706184 182.122493,276.587845 C183.470379,274.330635 184.171711,271.804658 184.171711,269.224176 L184.171711,259.924311 C184.161181,257.234548 183.461968,254.653958 182.114082,252.451522 L182.113656,252.450985 Z M181.464999,267.930333 L181.464999,269.16709 C181.464999,270.672613 181.195422,272.178136 180.60149,273.629046 L178.175295,271.210146 L181.464999,267.930333 Z M158.498101,273.574433 C157.904168,272.175986 157.634591,270.672613 157.634591,269.112476 L157.634591,267.875719 L160.924296,271.155533 L158.498101,273.574433 Z M160.924296,257.772027 L157.634591,261.051841 L157.634591,259.815084 C157.634591,258.309561 157.904168,256.804037 158.498101,255.353127 L160.924296,257.772027 Z M169.550766,266.372561 L174.348377,271.155748 L169.550766,275.938935 L164.753154,271.155748 L169.550766,266.372561 Z M162.811336,259.708223 L167.608947,264.491409 L162.811336,269.274596 L158.013725,264.491409 L162.811336,259.708223 Z M176.290196,269.274704 L171.492584,264.491517 L176.290196,259.70833 L181.087807,264.491517 L176.290196,269.274704 Z M169.550766,262.610365 L164.753154,257.827178 L169.550766,253.043992 L174.348377,257.827178 L169.550766,262.610365 Z M169.550766,249.172031 L168.417679,248.042351 C169.171632,247.987759 169.980364,247.987759 170.736474,248.042351 L169.550766,249.172031 Z M181.464999,259.815729 L181.464999,261.052486 L178.175295,257.772673 L180.60149,255.353772 C181.142747,256.804682 181.464999,258.310206 181.464999,259.815729 Z M179.255707,252.934765 L176.290357,255.891198 L171.492746,251.108011 L173.864163,248.743725 C175.966002,249.602542 177.853043,251.053452 179.255707,252.934819 L179.255707,252.934765 Z M175.212049,246.429536 C174.780305,246.267857 174.348539,246.106178 173.918941,245.946595 L175.968159,244.926141 L175.212049,246.429536 Z M169.550928,241.807986 L171.330568,245.409029 C170.14486,245.24735 168.904374,245.24735 167.718665,245.409029 L169.550928,241.807986 Z M163.188367,244.926109 L165.237585,245.946562 C164.805841,246.108242 164.374075,246.215329 163.944477,246.429504 L163.188367,244.926109 Z M165.290206,248.74136 L167.661623,251.105646 L162.864011,255.888833 L159.898662,252.9324 C161.246548,251.053129 163.133589,249.602219 165.290206,248.741306 L165.290206,248.74136 Z M159.845825,276.048592 L162.811174,273.092158 L167.608786,277.875345 L165.237369,280.239632 C163.133427,279.435428 161.246386,277.929905 159.845825,276.048538 L159.845825,276.048592 Z M168.365004,280.941005 L169.550712,279.758862 L170.73642,280.941005 C169.927689,281.048093 169.173735,281.048093 168.365004,280.941005 Z M173.809385,280.241782 L171.437968,277.877495 L176.235579,273.094308 L179.200928,276.050742 C177.853043,277.930012 175.966002,279.435536 173.809385,280.241836 L173.809385,280.241782 Z" id="Page-1-Copy-40" transform="translate(169.559659, 260.569943) rotate(23.000000) translate(-169.559659, -260.569943) "></path>
                </g>
            </g>
        </g>
    </g>
</svg>