
<svg width="49px" height="50px" viewBox="0 0 49 50" version="1.1" xmlns="http://www.w3.org/2000/svg" xmlns:xlink="http://www.w3.org/1999/xlink">
    <!-- Generator: Sketch 44.1 (41455) - http://www.bohemiancoding.com/sketch -->
    <desc>Created with Sketch.</desc>
    <defs></defs>
    <g id="Page-1" stroke="none" stroke-width="1" fill="none" fill-rule="evenodd">
        <g id="Homepage" transform="translate(-1056.000000, -1659.000000)" fill="#FFFFFF">
            <g id="Group-7" transform="translate(1056.000000, 1659.000000)">
                <g id="Group-5">
                    <path d="M37.829225,35.7111111 L33.9029775,35.7111111 L33.9029775,34.0232099 C37.7909437,32.1062346 40.0782025,28.5833951 40.0782025,24.417037 L40.0782025,18.3237654 C40.0782025,12.0472222 35.010745,6.9404321 28.78309,6.9404321 C28.098805,6.9404321 27.4216862,7.01035802 26.7565725,7.13091975 C24.3256825,2.88227778 19.777135,0.0154876543 14.570885,0.0154876543 C6.821535,0.0154876543 0.514623112,6.37166049 0.514623112,14.181537 C0.514623112,21.9914136 6.821535,28.3475864 14.570885,28.3475864 C15.776775,28.3475864 16.9467112,28.1932654 18.0640337,27.9039136 C18.9732287,30.5225494 20.93035,32.6734198 23.6626512,34.0188519 L23.6626512,35.7067531 L19.7364037,35.7067531 C14.424865,35.7067531 8.70895375,39.6636667 8.70895375,48.3511914 C8.70895375,49.2047716 9.39323875,49.8944043 10.2402037,49.8944043 L47.3227912,49.8944043 C48.1697562,49.8944043 48.8540412,49.2047716 48.8540412,48.3511914 C48.8564361,39.6684753 43.14058,35.7110741 37.8290412,35.7110741 L37.829225,35.7111111 Z M3.57945,14.1833333 C3.57945,8.07320988 8.51295375,3.1037037 14.5732125,3.1037037 C20.6359825,3.1037037 25.566975,8.07574074 25.566975,14.1833333 C25.566975,20.2934568 20.6334712,25.262963 14.5732125,25.262963 C8.5104425,25.262963 3.57945,20.2909259 3.57945,14.1833333 Z M11.8671875,46.8098765 C12.3648437,42.7083333 14.874685,38.7950617 19.7390375,38.7950617 L25.196535,38.7950617 C26.0435,38.7950617 26.727785,38.1054321 26.727785,37.2518519 L26.727785,33.0152469 C26.727785,32.3835185 26.3449725,31.8144444 25.7611987,31.5805556 C23.3135875,30.6040123 21.643545,28.9305556 20.9377612,26.8062346 C25.4980075,24.4624691 28.6319862,19.6833951 28.6319862,14.1809259 C28.6319862,12.748642 28.4190445,11.3669753 28.0242699,10.0648765 C28.2754929,10.0407593 28.5291046,10.0262963 28.7851174,10.0262963 C33.3238649,10.0262963 37.0177299,13.7468519 37.0177299,18.3232099 L37.0177299,24.4164815 C37.0177299,27.65 35.1179999,30.2614198 31.8090911,31.5825309 C31.2253051,31.8164259 30.8425049,32.3854938 30.8425049,33.0172222 L30.8425049,37.2514198 C30.8425049,38.105 31.5267899,38.7946296 32.3737549,38.7946296 L37.8312524,38.7946296 C42.6929711,38.7946296 45.2026899,42.7080864 45.7031024,46.8094444 L11.8671875,46.8098765 Z" id="Fill-1"></path>
                    <path d="M14.18795,6.39197531 C12.666255,6.39197531 11.3790863,6.82359259 10.6062338,7.27691358 L11.3359663,9.63271605 C11.8934393,9.2445 12.7523725,8.98407407 13.4581563,8.98407407 C14.5300313,9.02747531 15.02291,9.52419753 15.02291,10.281358 C15.02291,11.0167901 14.465437,11.7064198 13.7788,12.528642 C12.8146025,13.695679 12.4485113,14.819321 12.5155188,15.9212963 L12.5370543,16.4831235 L15.3889768,16.4831235 L15.3889768,16.0949074 C15.3674413,15.123179 15.6880483,14.2792284 16.4824118,13.3942901 C17.295873,12.4876235 18.3055793,11.4073765 18.3055793,9.7629321 C18.3031844,7.96898148 17.0183493,6.39200617 14.1879255,6.39200617 L14.18795,6.39197531 Z" id="Fill-2"></path>
                </g>
                <path d="M13.88905,17.4987654 C12.7741163,17.4987654 11.979765,18.3209877 11.979765,19.4639506 C11.979765,20.5875926 12.7525563,21.4315432 13.88905,21.4315432 C15.0470425,21.4315432 15.817445,20.59 15.817445,19.4639506 C15.7959095,18.3209877 15.0446538,17.4987654 13.88905,17.4987654 Z" id="Fill-3"></path>
            </g>
        </g>
    </g>
</svg>