
<svg width="12px" height="12px" viewBox="0 0 12 12" version="1.1" xmlns="http://www.w3.org/2000/svg" xmlns:xlink="http://www.w3.org/1999/xlink">
    <!-- Generator: Sketch 44.1 (41455) - http://www.bohemiancoding.com/sketch -->
    <desc>Created with Sketch.</desc>
    <defs></defs>
    <g id="Page-1" stroke="none" stroke-width="1" fill="none" fill-rule="evenodd">
        <g id="Homepage" transform="translate(-947.000000, -2338.000000)" fill="#CC9132">
            <path d="M958.586207,2339.24138 L956.517241,2339.24138 L956.517241,2338.41379 C956.517241,2338.18588 956.331357,2338 956.103448,2338 L954.655172,2338 C954.427255,2338 954.241379,2338.18588 954.241379,2338.41379 L954.241379,2339.24138 L951.758621,2339.24138 L951.758621,2338.41379 C951.758621,2338.18588 951.572737,2338 951.344828,2338 L949.896552,2338 C949.668634,2338 949.482759,2338.18588 949.482759,2338.41379 L949.482759,2339.24138 L947.413793,2339.24138 C947.185876,2339.24138 947,2339.42726 947,2339.65517 L947,2349.17241 C947,2349.40033 947.185884,2349.58621 947.413793,2349.58621 L958.586207,2349.58621 C958.814124,2349.58621 959,2349.40032 959,2349.17241 L959,2339.65517 C959,2339.42726 958.814116,2339.24138 958.586207,2339.24138 Z M955.068966,2338.82759 L955.689655,2338.82759 L955.689655,2340.48276 L955.068966,2340.48276 L955.068966,2338.82759 Z M950.310345,2338.82759 L950.931034,2338.82759 L950.931034,2340.48276 L950.310345,2340.48276 L950.310345,2338.82759 Z M947.827586,2348.75862 L947.827586,2342.96552 L958.172414,2342.96552 L958.172414,2348.75862 L947.827586,2348.75862 Z" id="Page-1-Copy-3"></path>
        </g>
    </g>
</svg>