
<svg width="14px" height="9px" viewBox="0 0 14 9" version="1.1" xmlns="http://www.w3.org/2000/svg" xmlns:xlink="http://www.w3.org/1999/xlink">
    <!-- Generator: Sketch 44.1 (41455) - http://www.bohemiancoding.com/sketch -->
    <desc>Created with Sketch.</desc>
    <defs></defs>
    <g id="Symbols" stroke="none" stroke-width="1" fill="none" fill-rule="evenodd" opacity="0.787371735">
        <g id="Header" transform="translate(-974.000000, -10.000000)" fill-rule="nonzero" fill="#C37900">
            <g id="Group-5">
                <path d="M974.430501,10.9645 C974.796501,11.161 979.866501,13.885 980.055501,13.98625 C980.244501,14.0875 980.489001,14.1355 980.735001,14.1355 C980.981001,14.1355 981.225501,14.0875 981.414501,13.98625 C981.603501,13.885 986.673501,11.161 987.039501,10.9645 C987.406251,10.76725 987.752751,10 987.080001,10 L974.390751,10 C973.718001,10 974.064501,10.76725 974.430501,10.9645 Z M987.209751,12.61675 C986.793501,12.8335 981.669501,15.5035 981.414501,15.637 C981.159501,15.7705 980.981001,15.78625 980.735001,15.78625 C980.489001,15.78625 980.310501,15.7705 980.055501,15.637 C979.800501,15.5035 974.705751,12.83275 974.289501,12.616 C973.997001,12.463 974.000001,12.64225 974.000001,12.78025 L974.000001,18.25 C974.000001,18.565 974.424501,19 974.750001,19 L986.750001,19 C987.075501,19 987.500001,18.565 987.500001,18.25 L987.500001,12.781 C987.500001,12.643 987.503001,12.46375 987.209751,12.61675 Z" id="Shape"></path>
            </g>
        </g>
    </g>
</svg>