<svg width="10px" height="15px" viewBox="0 0 10 15" version="1.1" xmlns="http://www.w3.org/2000/svg" xmlns:xlink="http://www.w3.org/1999/xlink">
<defs></defs>
    <g id="Symbols" stroke="none" stroke-width="1" fill="none" fill-rule="evenodd" opacity="0.787371735">
        <g id="Header" transform="translate(-820.000000, -7.000000)" fill="#C37900">
            <g id="Group-5">
                <path d="M828.181818,7 L821.818182,7 C820.814091,7 820,7.81409091 820,8.81818182 L820,19.7272727 C820,20.2093409 820.191761,20.6718636 820.532682,21.0127727 C820.873602,21.3536818 821.336136,21.5454545 821.818182,21.5454545 L828.181818,21.5454545 C828.663886,21.5454545 829.126409,21.3536932 829.467318,21.0127727 C829.808227,20.6718523 830,20.2093182 830,19.7272727 L830,8.81818182 C830,8.33611364 829.808239,7.87359091 829.467318,7.53268182 C829.126398,7.19177273 828.663864,7 828.181818,7 Z M825,20.1818182 C824.632455,20.1818182 824.300432,19.9607591 824.160159,19.6207273 C824.019002,19.2807045 824.097127,18.8900909 824.357248,18.6299545 C824.617368,18.3698182 825.007998,18.2917045 825.34802,18.4328659 C825.688043,18.5731364 825.909111,18.9051614 825.909111,19.2727068 C825.909111,19.5141841 825.81323,19.7450023 825.64277,19.9154568 C825.472311,20.0859114 825.241498,20.1817977 825.00002,20.1817977 L825,20.1818182 Z M828.181818,17.2272727 L821.818182,17.2272727 L821.818182,8.81818182 L828.181818,8.81818182 L828.181818,17.2272727 Z" id="Page-1"></path>
            </g>
        </g>
    </g>
    
</svg>