
<svg width="45px" height="45px" viewBox="0 0 45 45" version="1.1" xmlns="http://www.w3.org/2000/svg" xmlns:xlink="http://www.w3.org/1999/xlink">
    <!-- Generator: Sketch 44.1 (41455) - http://www.bohemiancoding.com/sketch -->
    <desc>Created with Sketch.</desc>
    <defs></defs>
    <g id="Page-1" stroke="none" stroke-width="1" fill="none" fill-rule="evenodd">
        <g id="Homepage" transform="translate(-321.000000, -1656.000000)" fill="#FFFFFF">
            <path d="M351.338378,1683.35758 C352.56023,1681.11149 353.199952,1678.41442 353.199952,1675.78 C353.199952,1669.38324 348.943158,1664.74 343.079952,1664.74 C337.214952,1664.74 332.959952,1669.38324 332.959952,1675.78 C332.959952,1678.41424 333.597834,1681.1114 334.821526,1683.35758 C330.322174,1685.05921 326.519906,1688.03486 326.519906,1691.88 C326.519906,1692.34718 326.695999,1692.79462 327.014038,1693.13603 C331.240288,1697.66418 336.945438,1700.16023 343.079998,1700.16023 C349.214558,1700.16023 354.919478,1697.66436 359.145958,1693.13603 C359.464007,1692.79642 359.64009,1692.34722 359.64009,1691.88 C359.64009,1688.03468 355.83612,1685.05912 351.33847,1683.35758 L351.338378,1683.35758 Z M343.079998,1668.42184 C347.50391,1668.42184 349.519998,1672.23662 349.519998,1675.78184 C349.519998,1679.602 347.52185,1684.98184 343.079998,1684.98184 C338.638146,1684.98184 336.639998,1679.60214 336.639998,1675.78184 C336.639998,1672.23662 338.654292,1668.42184 343.079998,1668.42184 Z M343.079998,1696.48 C338.259198,1696.48 333.754418,1694.62381 330.300738,1691.23508 C330.86318,1689.39508 333.729164,1687.50834 337.197058,1686.40876 C338.75494,1687.79594 340.717116,1688.66202 343.079998,1688.66202 C345.441086,1688.66202 347.405056,1687.79594 348.961098,1686.40876 C352.430878,1687.51023 355.295298,1689.39517 355.859258,1691.23508 C352.40567,1694.62399 347.900798,1696.48 343.079998,1696.48 Z M343.079998,1656 C330.904258,1656 321,1665.90426 321,1678.08 C321,1681.22815 321.646852,1684.26654 322.92625,1687.1167 C323.231718,1687.79773 323.90375,1688.20382 324.606306,1688.20382 C324.857871,1688.20382 325.114836,1688.15171 325.359188,1688.0403 C326.286364,1687.62523 326.699674,1686.53633 326.28457,1685.60911 C325.219026,1683.23726 324.679952,1680.70367 324.679952,1678.08029 C324.679952,1667.93315 332.932812,1659.68029 343.079952,1659.68029 C353.225252,1659.68029 361.479952,1667.93315 361.479952,1678.08029 C361.479952,1680.70192 360.939084,1683.23551 359.875334,1685.60727 C359.458459,1686.53445 359.87354,1687.62336 360.800716,1688.03846 C361.727892,1688.45714 362.816804,1688.04205 363.231908,1687.11308 C364.51126,1684.26504 365.159952,1681.22646 365.159952,1678.08006 C365.159952,1665.90432 355.255692,1656.00006 343.079952,1656.00006 L343.079998,1656 Z" id="Page-1"></path>
        </g>
    </g>
</svg>