
<svg width="46px" height="45px" viewBox="0 0 46 45" version="1.1" xmlns="http://www.w3.org/2000/svg" xmlns:xlink="http://www.w3.org/1999/xlink">
    <!-- Generator: Sketch 44.1 (41455) - http://www.bohemiancoding.com/sketch -->
    <desc>Created with Sketch.</desc>
    <defs></defs>
    <g id="Page-1" stroke="none" stroke-width="1" fill="none" fill-rule="evenodd">
        <g id="Homepage" transform="translate(-816.000000, -1662.000000)" fill="#FFFFFF">
            <g id="Group-4" transform="translate(816.500000, 1662.000000)">
                <path d="M22.5,44.5940426 C10.3169681,44.5940426 0.405957447,34.6830319 0.405957447,22.5 C0.405957447,10.3169681 10.3169681,0.405957447 22.5,0.405957447 C28.3121809,0.405957447 33.7815957,2.63498936 37.9311702,6.68728723 L41.832,2.78459043 L41.832,16.0543245 L28.562266,16.0561963 L33.3739149,11.2445473 C30.441734,8.40959521 26.5913617,6.85001011 22.4997128,6.85001011 C13.869766,6.85001011 6.84976596,13.8700101 6.84976596,22.4999569 C6.84976596,31.1299037 13.869766,38.1499037 22.4997128,38.1499037 C31.1296596,38.1499037 38.1496596,31.1299037 38.1496596,22.4999569 L38.1496596,21.5798984 L44.5937553,21.5798984 L44.5937553,22.4999569 C44.5937553,34.6829888 34.6827447,44.593999 22.4997128,44.593999 L22.5,44.5940426 Z M22.5,2.24569149 C11.3323404,2.24569149 2.24569245,11.3318617 2.24569245,22.5 C2.24569245,33.6681383 11.3318617,42.7543076 22.5,42.7543076 C33.3593617,42.7543076 42.2492553,34.163617 42.7337234,23.4220213 L39.9679947,23.4220213 C39.4874043,32.6393617 31.8373564,39.9920745 22.5003351,39.9920745 C12.855016,39.9920745 5.00826064,32.1453191 5.00826064,22.5 C5.00826064,12.8546809 12.855016,5.00792074 22.5003351,5.00792074 C27.1716223,5.00792074 31.564484,6.82745266 34.868633,10.1316973 L35.9775479,11.2462133 L33.0098457,14.2139154 L39.9925053,14.2139154 L39.9925053,7.23125585 L37.9018245,9.3219367 L36.8041117,8.16064947 C32.9967766,4.35331436 27.9103883,2.24602181 22.5003351,2.24602181 L22.5,2.24569149 Z" id="Fill-1"></path>
                <polygon id="Fill-2" points="23.4201064 23.4201064 15.1357979 23.4201064 15.1357979 21.5799894 21.5798936 21.5799894 21.5798936 9.61190426 23.4200106 9.61190426"></polygon>
                <polygon id="Fill-3" points="18.8181383 29.8642021 26.1823404 29.8642021 26.1823404 31.7061862 18.8181383 31.7061862"></polygon>
            </g>
        </g>
    </g>
</svg>