
<svg width="40px" height="40px" viewBox="0 0 40 40" version="1.1" xmlns="http://www.w3.org/2000/svg" xmlns:xlink="http://www.w3.org/1999/xlink">
    <!-- Generator: Sketch 44.1 (41455) - http://www.bohemiancoding.com/sketch -->
    <desc>Created with Sketch.</desc>
    <defs></defs>
    <g id="Page-1" stroke="none" stroke-width="1" fill="none" fill-rule="evenodd">
        <g id="Homepage" transform="translate(-570.000000, -1661.000000)" fill="#FFFFFF">
            <g id="Group" transform="translate(570.000000, 1661.000000)">
                <path d="M12.21,38.0531579 C13.4723158,39.3154737 15.1582105,39.9487368 16.842,39.9487368 C18.6306316,39.9487368 20.4213684,39.2641053 21.7885263,37.8969474 L38.158,21.5274737 C39.2641053,20.4213684 39.8952632,18.9493684 39.9466316,17.3704211 L39.9466316,5.002 C39.9466316,3.68621053 39.4203158,2.42389474 38.4725263,1.47610526 C37.5782105,0.526263158 36.3158421,-5.26315789e-05 35.0000526,-5.26315789e-05 L22.5779474,-5.26315789e-05 C21.0524737,0.0534 19.5783684,0.684578947 18.4722632,1.78857895 L2.10489474,18.1580526 C-0.580157895,20.8431053 -0.685,25.1585789 1.94658947,27.7901579 L12.21,38.0531579 Z M4.68315789,20.7894737 L21.0526316,4.42 C21.4740947,3.99853684 22.0517895,3.73536842 22.5781053,3.73536842 L34.9465263,3.73536842 C35.3145368,3.73536842 35.6311579,3.89367368 35.8943158,4.10337895 C36.1574737,4.36653684 36.2623263,4.68316842 36.2623263,5.05116842 L36.2623263,17.3659105 C36.2623263,17.9457 35.9991684,18.5233842 35.5776947,18.9448579 L19.2103263,35.3159053 C17.9480105,36.5782211 15.9475895,36.6316947 14.7901158,35.4742105 L4.52695789,25.2089526 C3.36743158,24.0000579 3.42085263,22.0510579 4.68321053,20.7887368 L4.68315789,20.7894737 Z" id="Fill-1"></path>
                <path d="M27.1578947,18.8947368 C28.6833684,18.8947368 30.2623158,18.3149474 31.4218947,17.1061053 C33.7903158,14.7376842 33.7903158,10.8950526 31.4218947,8.52663158 C29.0534737,6.15821053 25.2108421,6.15821053 22.8424211,8.52663158 C20.474,10.8950526 20.474,14.7376842 22.8424211,17.1061053 C24.0533684,18.315 25.6323158,18.8947368 27.1577895,18.8947368 L27.1578947,18.8947368 Z M25.4741053,11.1584211 C25.9469684,10.6855579 26.5267368,10.4737895 27.1578947,10.4737895 C27.7890526,10.4737895 28.3688421,10.6834947 28.8416842,11.1584211 C29.7894737,12.1062105 29.7894737,13.5803158 28.8416842,14.526 C27.8938947,15.4737895 26.4197895,15.4737895 25.4741053,14.526 C24.5797895,13.5782105 24.5797895,12.1061579 25.4741053,11.1584211 Z" id="Fill-2"></path>
            </g>
        </g>
    </g>
</svg>